<mxfile host="app.diagrams.net" modified="2022-09-28T16:02:58.824Z" agent="5.0 (Windows NT 10.0; Win64; x64) AppleWebKit/537.36 (KHTML, like Gecko) Chrome/105.0.0.0 Safari/537.36" etag="eyfeUJywGYZXG2Gvbemw" version="20.2.7" type="github">
  <diagram id="o8mNcPQbJii2whKlLffo" name="PÃ¡gina-1">
    <mxGraphModel dx="2012" dy="635" grid="1" gridSize="10" guides="1" tooltips="1" connect="1" arrows="1" fold="1" page="1" pageScale="1" pageWidth="827" pageHeight="1169" math="0" shadow="0">
      <root>
        <mxCell id="0" />
        <mxCell id="1" parent="0" />
        <mxCell id="mzxLMHEq85Mwxp3fEge0-18" style="edgeStyle=none;rounded=0;orthogonalLoop=1;jettySize=auto;html=1;fontSize=12;" edge="1" parent="1" source="mzxLMHEq85Mwxp3fEge0-9" target="mzxLMHEq85Mwxp3fEge0-17">
          <mxGeometry relative="1" as="geometry" />
        </mxCell>
        <mxCell id="mzxLMHEq85Mwxp3fEge0-23" style="edgeStyle=none;rounded=0;orthogonalLoop=1;jettySize=auto;html=1;fontSize=12;" edge="1" parent="1" source="mzxLMHEq85Mwxp3fEge0-9" target="mzxLMHEq85Mwxp3fEge0-12">
          <mxGeometry relative="1" as="geometry">
            <Array as="points">
              <mxPoint x="390" y="340" />
            </Array>
          </mxGeometry>
        </mxCell>
        <mxCell id="mzxLMHEq85Mwxp3fEge0-24" value="Deploy" style="edgeLabel;html=1;align=center;verticalAlign=middle;resizable=0;points=[];fontSize=12;" vertex="1" connectable="0" parent="mzxLMHEq85Mwxp3fEge0-23">
          <mxGeometry x="-0.0958" relative="1" as="geometry">
            <mxPoint as="offset" />
          </mxGeometry>
        </mxCell>
        <mxCell id="mzxLMHEq85Mwxp3fEge0-9" value="" style="shape=module;align=left;spacingLeft=20;align=center;verticalAlign=top;fontSize=12;" vertex="1" parent="1">
          <mxGeometry x="135" y="257" width="210.5" height="168.5" as="geometry" />
        </mxCell>
        <mxCell id="mzxLMHEq85Mwxp3fEge0-7" value="172.17.0.77" style="shape=module;align=left;spacingLeft=20;align=center;verticalAlign=top;fontSize=12;" vertex="1" parent="1">
          <mxGeometry x="-180" y="266.75" width="170" height="145.5" as="geometry" />
        </mxCell>
        <mxCell id="mzxLMHEq85Mwxp3fEge0-16" style="edgeStyle=none;rounded=0;orthogonalLoop=1;jettySize=auto;html=1;fontSize=12;" edge="1" parent="1" source="mzxLMHEq85Mwxp3fEge0-1" target="mzxLMHEq85Mwxp3fEge0-5">
          <mxGeometry relative="1" as="geometry" />
        </mxCell>
        <mxCell id="mzxLMHEq85Mwxp3fEge0-1" value="" style="shape=image;verticalLabelPosition=bottom;labelBackgroundColor=default;verticalAlign=top;aspect=fixed;imageAspect=0;image=https://ricardogeek.com/wp-content/uploads/2018/06/jenkins-ci_512.png;" vertex="1" parent="1">
          <mxGeometry x="218" y="280" width="62" height="62" as="geometry" />
        </mxCell>
        <mxCell id="mzxLMHEq85Mwxp3fEge0-8" style="rounded=0;orthogonalLoop=1;jettySize=auto;html=1;fontSize=12;exitX=0;exitY=0.5;exitDx=10;exitDy=0;exitPerimeter=0;" edge="1" parent="1" source="mzxLMHEq85Mwxp3fEge0-9" target="mzxLMHEq85Mwxp3fEge0-2">
          <mxGeometry relative="1" as="geometry">
            <mxPoint x="110" y="380" as="sourcePoint" />
          </mxGeometry>
        </mxCell>
        <mxCell id="mzxLMHEq85Mwxp3fEge0-2" value="" style="shape=image;verticalLabelPosition=bottom;labelBackgroundColor=default;verticalAlign=top;aspect=fixed;imageAspect=0;image=data:image/jpeg,/9j/4AAQSkZJRgABAQAAAQABAAD/2wCEAAoHCBAQDg4RDg4OEBEQEBAOEQ4ODhgQDg4QGBMZGBcTFxcaLDkjGhwoHRgVJDUkKC0vMjIyGiY4SjgxPCwxMi8BCwsLDw4PHRERHDEgIykxPDE0MS86PDExMS8xLzk3LzExMTE8MzExMTEyOC8xMTExMTExMTExMTExMTExMTExMf/AABEIANUA7AMBIgACEQEDEQH/xAAcAAEAAgMBAQEAAAAAAAAAAAAAAgcDBAYFAQj/xABCEAACAgACBAkKBAUDBQEAAAAAAQIDBBEFEhMVBjFSU5GSk6HRByFBUWFjcaPC4RaBwdIiYnKCsTNUsiMyNEJDFP/EABoBAQADAQEBAAAAAAAAAAAAAAABBQYEAwL/xAAwEQABAgMFBwMEAwEAAAAAAAAAAQIDERIEBSFRoRRSYZGx0eExccEVIkHwMmOB8f/aAAwDAQACEQMRAD8A9PTfCK/EXT1LbK6lJqEIScE4p+aUsvO2+Pz8R5u8L+fu7SXifMfRs77a+bsnDqya/Q1zZwobGsRGpgZp8SIrlqVZmzvC/n7u0l4jeF/P3dpLxNYHpSh81uzNneF/P3dpLxG8L+fu7SXiawFKCt2Zs7wv5+7tJeI3hfz93aS8TWApQVuzNneF/P3dpLxG8L+fu7SXiawFKCt2Zs7wv5+7tJeI3hfz93aS8TWApQVuzNneF/P3dpLxG8L+fu7SXiawFKCt2Zs7wv5+7tJeI3hfz93aS8TWApQVuzNneF/P3dpLxG8L+fu7SXiawFKCt2Zs7wv5+7tJeI3hfz93aS8TWApQVuzNneF/P3dpLxG8L+fu7SXiawFKCt2Zs7wv5+7tJeI3hfz93aS8TWApQVuzNneF/P3dpLxG8L+fu7SXiawFKCt2Zs7wv5+7tJeI3hfz93aS8TWApQVuzNuOk8RFpxxF6a4mrZeJ2mg+FsHQli5Laxk46y82vHJNSa9D87X5HAHV8GNAQxWHlZPLNWygvgoxf6nNaYEKI1K0OizxIqO+1TzOFlWppHErLzSlGxe3WjFvvzPHOr8oFWWKqn6J0pf3Rm8+5xOUPqyPrgMdwTTA87S2mM5OPXEAA6DxAAAAAAAAAAAAAAAAAAAAAAAAAAAAAAAAAAAABaHAynU0dTnxyc5v85vLuSKub8xcWi6tnhsPD0wqri/iorPvKm+HqkJrU9VXonksLtaixHKv4Tr/AMOa8odGdOGs5Fk4daOf0HBlm8NqdbR9ryzdcq7F1lF90mVket1PqsyJkqp8/J8Xg2UaeaIvx8AAFicQAAAAAAAAAAAAAAAAAAAAAAAAAAAAAAAAAAABnwNG1uqr5dkIdMlH9S5yqeCdOvpHDL0RlKx+zVjJrv1S1jP3w+b2N4T5r4Le7U+xy8Zcv+mjpenaYXEwXHKmxL+rVeXfkU+mXcUti6NlbbXyJzh0Scf0PW5n/a9vsvXwfF5t/i73T91MQALsqwAAAAAAAAAAAAAAAAAAAAAAAAAAAAAAAAAAADq/J9TnirZ+iFLX5ymsu6MiwzjfJ3RlVibOXZCHVjn9Z2RlrzfVaXcJJp3L6xNpgJxx/f8AJAqfhVTqaRxSy8zmrF7deMZN9LZbBXXlAp1cXXP0WUpf3KUk+5xPW6Xyjq3NPPSZ53i2cJFyVOxywANIUoAAAAAAAAQgnsp8ifUZ92U+RPqMtrQmI2uDw1jeblVDWf8AMllLvTPQKR17q1ytWH6cfBatu1FRFR+nkpXZT5E+oxsp8ifUZdQPn6z/AF6+Cfpib+nkpXZT5E+oxsp8ifUZdQH1n+vXwPpib+nkpXZT5E+oxsp8ifUZdQH1n+vXwPpib+nkpXZT5E+oyEk08pJp+p+Zl2lL8PMRtNKYnz5qt11R9ijCOa6zkddjt62h6tplJJ+s/g8LRY0gtqqn/hgzXrXSNZetdJ4TR8aLKZx0nvay9a6RrL1rpOfaItCYpOi1l610jWXrXSc20CJik6TWXrXSNZetdJzYJmKS8eBNOro6p85Kyx9ZxXdFHRHmcHsPssBg62snDD0qS/m1E5d7Z6ZjbQ+uK52ar1NHCZRDa3JE6A4zyiUZ1YazkTsh1op/QzsznOG9Ovo+x5Zuuddi6yi+6TPWwvptLF4y54fJ52pJwXe3TErQAGtM8AAAAAAAAAWTwGu1sBGPN2zh+Tan9TOlOF8neI/ixVTfGq7Ir4NqT74ndGTvBtNpfxx54mgsbqoLeXLAAA4zpAAAAAABQOlMRtsTibecuttXwlNtdzLv0ziNlhMVYuOFNsl/UovLvyKHyL25m4Pd7J18FXeLv4t91/dSDRFmRog0XRWkWiLRJo+NAkg0RJtHxoAiZ8Fh9tdVUuOyyutfGUlH9TAe7wIw+10rg4tZqNu0+Gzi5p9MUfD30MV2SKvJD6Y2pyNzUvRLJZLiXmSJAGLNGDQ0zTtMJiYLjlTZl/VqtrvyN8j8T6a5WuRyfghUmkik0DJiadnbZXyJTh0Scf0MZtpouKGXkqYKAAAAAAAAAe/wJv1NIVx52E4Pq6y74os8pzRV+yxWHszyULYSb/l1lrd2ZcZnr3ZKK12adF8oXN2unDVuSgAFQWAAAAAABzXD3EbPRl/nydkqq1+c02uqpFP5Fl+U/EZUYWrl2Tt6kMvrK1aNNdTKbMi5qq/HwUtvdOLLJCDRFoyNEWixOMxtEWZGiDAItEWiTR8aBJBo7TyV0a2kLJteaqibz9UpSjFd2ucY0WX5JcPlXjbeVOmpezVUpP8A5xOK8H02Z/LmqHTZEnGb+/gsYAGVLwAAAqfhRTqaQxSy45qz46yU33yZ5J1HD+nVxkJ+idMetGUk+7VOXNhZX1wGO4J2XUzdobTFcnHriAAdB5AAAAAAHxrzFx6Mv2uHos5yqub+Lis105lOlmcCrtfR9azzdc7K31tZd0kVN8MnBa7JeqeELC7XSiOTNOi+VOiABnS5AAAAAAKw8pl+tjKYeiulP4SlKWfdGJxjR7vDG7X0li5Z5qM41L2akIxa6UzxGjYWVlEBjeCa49TPWh1UVy8emBjaItE2iLR7niQaItGRoi0CTGz40TaItAEGi4fJph9TRcJc7ddZ0S2f0FPsvjgzRstHYKGWTVFcpL1SktaXe2VV7vlBRM16Id93tnEVeB6wAM6W4AABxXlEo/6eGt9EZ2Vv+5KS/wCLOGLL4b062j7JZZ7Oddi62q+6bK0NPdbqrMnBVT5+Sit7ZRvdEX4+AACxOMAAAAAAHceTzEfwYmp/+sq7F7dZNP8AxHpOHPZ4L6Vhg8RKdqm4SrlXlWk5Z60Wnk37H0nLbYSxYDmtSa/j/FQ6LLERkZHL6Fqg5b8cYPk4js4/uPn45wfJxPZx/cZzYbTuKXW1Qd9Dqgcp+OsHyMT2cf3D8dYPkYns4/uGw2ncUbVB30OrIv1v0HK/jvBcnE9nH9xrY7hxhZ0XQrjiFOVdkIOVcVFTcWot/wAXFnkNgtM/4KRtUFMakK8xl+1tttf/ANZzn0ycv1MDJ5EWjWqiJ6Gfmq+pBoi0ZGRaIJMbRFom0fGgEMbRFoyNEWgSKaXZOFcf+6c41r4yaS/yfoaEVGKiuKKUUvYkUhwRw+00pgo+q6NvZp2fSXkUN8u+5jeCrzXwWt3J9rl49E8gAFMWIAAB5+m6dpg8TDLNumxxX8yi3HvSKhLskk00+JrJ/Ape+nZznW+OE5RfxUmv0L25n/a9vspU3m3FrvdDGAC7KwAAAAAAAAA+M+NEj40AY2fGjI0QZIINEWjI0QaIJINEWibRFogEGiLMjRFgGNoi0ZGiLQJINEGibR8aBJ1fk0w+vpGUmv8ASpsmn6FJuMF3SkW2V35K6P8AzLWuZqi/hrSl/mJYhmL0fVaVTJETSfyXdhbKCnEAArzrAAABU3CinU0hio+uzadaKl9TLZK44f06uMjP0WUxf90ZST7tUtLofKMrc06fqnBeLZwkXJfHY5gAGkKUAAAAAAAAAAAAi0RaMhFokEGiLRNoi0AQaItGRoi0QoMbRFom0RaIJIMi0ZGiLBJjaItGRoiwC1fJvRqaNUuduts/JZQ+hnXHj8FcPs9HYOOWWdMbGvbP+N98mewY+1PrjvdxXrgaKC2mG1OAAB4HqAAADifKJTnDC2eiMrK37dbVa/xI7Y5vhzTraPm+bsrs6Xq/UdlgdTaWLxlzwOe1tnBd7T5YlagA1hngAAAAAAAAAAAAGAARaIMyNHxokEGiDRNnxoAxtEWjI0RaIJMbRFom0fGiAQaPig5NRis5Sail623kiTPS4M0bTSGDh76E37VF6z7oshzqGq7LHlifTW1Kjc8OZdFNShCMFxQjGC+CWSMgBiTTAAAAAAA83T1O0wWKhlm3TZJL1yitZd6R6RGUU00+Jpp/Bn0x1DkdksyHJUipmUmDLisPKm2yqaalXOUXn7Hln+fH+ZiNtNFxQy8lT1AAAAAAAAAAAAAAAB8aPoAINEWibRFokEWiDRkaItAGNoi0ZGiLR8kkGjpfJ7htfSMZc1VZZ+bSh9ZzTR3Xkyw/8WMta4lXWn7W5Sku6By259FnevCXPD5OiyNnGan7hiWEADJGgAAAAAAAAAOe09wcpxb183Vao/6kVrKaXEpR9OXrzTOPnwdcW1t88vTsvufQWVjtkZrVajsE9PRepxxrNCe6pUx5dDDuP33y14jcfvvl/cA6ttj72idjz2KDlqvcbj998v7jcfvvl/cAbbH3tE7DYoOWq9xuP33y/uNx+++X9wBtsfe0TsNig5ar3G4/ffL+43H775f3AG2x97ROw2KDlqvcbj998v7jcfvvl/cAbbH3tE7DYoOWq9xuP33y/uNx+++X9wBtsfe0TsNig5ar3D0H775a8SO4vffLXiANtj72idhsUDLVe5L8P+/+V9yP4f8Af/K+4BO3R97ROxGxwctV7h8HH/uPlfci+Dj/ANx8r7gELbo+9onYbHBy1XuZcHwUdlij/wDp1c3x7HP9SxdEaLqwdMaqU8k3KUpeec5PjlJ+vi6ADhtlqixJNcuHk6YFnhw/uamP7megADhOgAAA/9k=;" vertex="1" parent="1">
          <mxGeometry x="-129.34" y="310" width="68.69" height="62" as="geometry" />
        </mxCell>
        <mxCell id="mzxLMHEq85Mwxp3fEge0-5" value="" style="shape=image;verticalLabelPosition=bottom;labelBackgroundColor=default;verticalAlign=top;aspect=fixed;imageAspect=0;image=https://static.thenounproject.com/png/1784964-200.png;" vertex="1" parent="1">
          <mxGeometry x="224" y="367.75" width="50" height="50" as="geometry" />
        </mxCell>
        <mxCell id="mzxLMHEq85Mwxp3fEge0-12" value="&lt;span style=&quot;&quot;&gt;dsadas&lt;/span&gt;" style="rounded=1;fontSize=12;horizontal=0;labelBackgroundColor=none;html=1;whiteSpace=wrap;labelPosition=center;verticalLabelPosition=top;align=center;verticalAlign=bottom;fontColor=#000000;fontStyle=0" vertex="1" parent="1">
          <mxGeometry x="480" y="90" width="150" height="490" as="geometry" />
        </mxCell>
        <mxCell id="mzxLMHEq85Mwxp3fEge0-17" value="" style="outlineConnect=0;dashed=0;verticalLabelPosition=bottom;verticalAlign=top;align=center;html=1;shape=mxgraph.aws3.internet_3;fillColor=#D2D3D3;gradientColor=none;fontSize=12;" vertex="1" parent="1">
          <mxGeometry x="200.5" y="110" width="79.5" height="54" as="geometry" />
        </mxCell>
        <mxCell id="mzxLMHEq85Mwxp3fEge0-19" value="" style="outlineConnect=0;dashed=0;verticalLabelPosition=bottom;verticalAlign=top;align=center;html=1;shape=mxgraph.aws3.traditional_server;fillColor=#7D7C7C;gradientColor=none;fontSize=12;" vertex="1" parent="1">
          <mxGeometry x="531.75" y="140" width="46.5" height="63" as="geometry" />
        </mxCell>
        <mxCell id="mzxLMHEq85Mwxp3fEge0-20" value="" style="outlineConnect=0;dashed=0;verticalLabelPosition=bottom;verticalAlign=top;align=center;html=1;shape=mxgraph.aws3.traditional_server;fillColor=#7D7C7C;gradientColor=none;fontSize=12;" vertex="1" parent="1">
          <mxGeometry x="531.75" y="257" width="46.5" height="63" as="geometry" />
        </mxCell>
        <mxCell id="mzxLMHEq85Mwxp3fEge0-21" value="" style="outlineConnect=0;dashed=0;verticalLabelPosition=bottom;verticalAlign=top;align=center;html=1;shape=mxgraph.aws3.traditional_server;fillColor=#7D7C7C;gradientColor=none;fontSize=12;" vertex="1" parent="1">
          <mxGeometry x="531.75" y="354.75" width="46.5" height="63" as="geometry" />
        </mxCell>
        <mxCell id="mzxLMHEq85Mwxp3fEge0-22" value="" style="outlineConnect=0;dashed=0;verticalLabelPosition=bottom;verticalAlign=top;align=center;html=1;shape=mxgraph.aws3.traditional_server;fillColor=#7D7C7C;gradientColor=none;fontSize=12;" vertex="1" parent="1">
          <mxGeometry x="531.75" y="480" width="46.5" height="63" as="geometry" />
        </mxCell>
      </root>
    </mxGraphModel>
  </diagram>
</mxfile>
